<svg xmlns="http://www.w3.org/2000/svg" xmlns:xlink="http://www.w3.org/1999/xlink" width="219.071" height="134.796" viewBox="0 0 219.071 134.796">
  <defs>
    <linearGradient id="linear-gradient" x1="0.523" y1="0.746" x2="0.523" y2="-0.176" gradientUnits="objectBoundingBox">
      <stop class="stopColorDEDEDE svgShape" offset="0%" stop-color="#dedede" stop-opacity="0"></stop>
      <stop class="stopColorA9A9A9 svgShape" offset="100%" stop-color="#a9a9a9" stop-opacity=".3"></stop>
    </linearGradient>
    <linearGradient id="linear-gradient-2" x1="0.448" y1="1" x2="0.448" gradientUnits="objectBoundingBox">
      <stop class="stopColorFFF svgShape" offset="0%" stop-color="#ffffff" stop-opacity="0"></stop>
      <stop class="stopColor96A1C5 svgShape" offset="100%" stop-color="#c596a7"
            stop-opacity=".373"></stop>
    </linearGradient>
    <linearGradient id="linear-gradient-3" x1="0.5" y1="1" x2="0.5" y2="-0.197" gradientUnits="objectBoundingBox">
      <stop class="stopColorFFF svgShape" offset="0%" stop-color="#ffffff" stop-opacity="0"></stop>
      <stop class="stopColor919191 svgShape" offset="100%" stop-color="#919191" stop-opacity=".15"></stop>
    </linearGradient>
    <linearGradient id="linear-gradient-4" x1="0.5" x2="0.5" y2="0.449" gradientUnits="objectBoundingBox">
      <stop class="stopColor5389F5 svgShape" offset="0%" stop-color="#ff005b" stop-opacity="0.6"></stop>
      <stop class="stopColor416FDC svgShape" offset="100%" stop-color="#ff005b" stop-opacity="0.9"></stop>
    </linearGradient>
    <linearGradient id="linear-gradient-5" x1="0.633" y1="1" x2="0.633" y2="-0.053" gradientUnits="objectBoundingBox">
      <stop class="stopColorDCE9FF svgShape" offset="0%" stop-color="#ffdce8"></stop>
      <stop class="stopColorB6CFFF svgShape" offset="100%" stop-color="#ffb6d0"></stop>
    </linearGradient>
    <linearGradient id="linear-gradient-6" x1="0.5" x2="0.5" y2="1" gradientUnits="objectBoundingBox">
      <stop class="stopColor7CA5F7 svgShape" offset="0%" stop-color="#ff005b" stop-opacity="0.9"></stop>
      <stop class="stopColorC4D6FC svgShape" offset="100%" stop-color="#fcc4d8"></stop>
    </linearGradient>
  </defs>
  <g id="SvgjsG1008" transform="translate(-0.168 -0.333)">
    <g id="Group_4" data-name="Group 4" transform="translate(0.168 0.333)">
      <g id="Group_3" data-name="Group 3">
        <path id="Path_53" data-name="Path 53" d="M41.259,25.253q3.379-10.683,6.286-13.3C52.908,7.11,60.324,9.744,61.9,10.121,67.439,11.449,65.638,2.707,70.39.93q4.75-1.776,7.815,4.342Q80.919-.436,86.477.035c5.559.471,7.5,19.245,15.142,15.135s17.006-5.051,21.007,1.058c.865,1.322,1.2-.729,7.078-7.73S141.45-1.59,153.481,2.488q8.206,2.778,13.5,15.059,0,17.528,25.786,20.749c25.788,3.219,5.771,30.944-25.786,39.063S62.767,89.862,23.339,69.346Q-16.089,48.835,41.257,25.253Z" transform="translate(2.727 0.001)" fill-rule="evenodd" opacity="0.8" fill="url(#linear-gradient)"/>
        <ellipse id="Ellipse_3" data-name="Ellipse 3" cx="47.547" cy="11.005" rx="47.547" ry="11.005" transform="translate(61.099 106.502)" fill="url(#linear-gradient-2)"/>
        <path id="Path_54" data-name="Path 54" d="M190.8,83.083C155.047,92.05,33.021,81.793,20.033,77.11Q10.55,73.687,2.94,64.239a4.794,4.794,0,0,1,3.734-7.8H219.909Q226.548,74.116,190.8,83.083Z" transform="translate(-1.878 48.156)" fill-rule="evenodd" opacity="0.675" fill="url(#linear-gradient-3)"/>
        <g id="Group_2" data-name="Group 2" transform="translate(71.406 67.538)">
          <path id="Path_55" data-name="Path 55" d="M73.725,20.517,57.465,1.5A4.135,4.135,0,0,0,54.344.042H19.381A4.138,4.138,0,0,0,16.26,1.5L0,20.517V30.955H73.725V20.517Z" transform="translate(0 -0.042)" fill="url(#linear-gradient-4)"/>
          <path id="Path_56" data-name="Path 56" d="M67,25.122,52.765,8.561a3.629,3.629,0,0,0-2.756-1.232H19.473a3.629,3.629,0,0,0-2.756,1.232L2.486,25.122v9.1H67v-9.1Z" transform="translate(2.121 6.175)" fill="url(#linear-gradient-5)"/>
          <path id="Path_57" data-name="Path 57" d="M73.725,33.438a4.746,4.746,0,0,1-1.682,3.625l-.209.17A4.686,4.686,0,0,1,69,38.184H4.73a4.659,4.659,0,0,1-1.65-.3l-.255-.1A4.76,4.76,0,0,1,0,33.436V11.152H17.888a3.589,3.589,0,0,1,3.568,3.6v.025a3.576,3.576,0,0,0,3.586,3.566H48.684a3.59,3.59,0,0,0,3.586-3.58,3.6,3.6,0,0,1,3.568-3.61H73.727Z" transform="translate(0 9.437)" fill="url(#linear-gradient-6)"/>
        </g>
      </g>
    </g>
  </g>
</svg>
