<svg xmlns="http://www.w3.org/2000/svg" xmlns:xlink="http://www.w3.org/1999/xlink" width="1932.299" height="476.091" viewBox="0 0 1932.299 476.091">
  <defs>
    <linearGradient id="linear-gradient" x1="1.005" y1="0.5" x2="0.015" y2="0.5" gradientUnits="objectBoundingBox">
      <stop offset="0" stop-color="#ff005b" stop-opacity="0.4"/>
      <stop offset="0.04" stop-color="#ff005b" stop-opacity="0.4"/>
      <stop offset="0.31" stop-color="#ff005b" stop-opacity="0.6"/>
      <stop offset="0.71" stop-color="#ff005b" stop-opacity="0.2"/>
      <stop offset="0.97" stop-color="#ff005b" stop-opacity="0"/>
      <stop offset="1" stop-color="#ff005b" stop-opacity="0"/>
    </linearGradient>
    <linearGradient id="linear-gradient-2" y1="0.5" x2="1" y2="0.5" gradientUnits="objectBoundingBox">
      <stop offset="0" stop-color="#ff005b" stop-opacity="0.6"/>
      <stop offset="0.04" stop-color="#ff005b" stop-opacity="0.6"/>
      <stop offset="0.38" stop-color="#ff005b" stop-opacity="0.702"/>
      <stop offset="0.59" stop-color="#ff005b" stop-opacity="0.631"/>
      <stop offset="0.71" stop-color="#ff005b" stop-opacity="0.6"/>
      <stop offset="0.97" stop-color="#ff005b" stop-opacity="0.502"/>
      <stop offset="1" stop-color="#ff005b" stop-opacity="0.502"/>
    </linearGradient>
  </defs>
  <g id="waves-gradient-3" transform="translate(0 0)">
    <g id="Wave_Pattern" data-name="Wave Pattern" transform="translate(0 0)">
      <path id="Path_1" data-name="Path 1" d="M1925.005,393.76c-86.63,16.69-179.914,47.076-275.827,92-156.525,73.164-306.373,109.494-469.071,109.494-111.14,0-228.339-16.942-357.771-50.689q-177.925-46.39-352.489-46.55A1274.621,1274.621,0,0,0-.106,587.74l.242,4.82a1270.051,1270.051,0,0,1,469.711-90.037q173.626,0,351.346,46.413c129.706,33.815,247.294,50.826,358.96,50.826,163.406,0,314.009-36.582,470.991-109.906,95.273-44.584,187.962-74.787,273.884-91.455Z" transform="translate(7.18 -369.364)" fill="rgba(145,0,59,0.05)"/>
      <path id="Path_2" data-name="Path 2" d="M1924.869,398.19c-87.2,16-181.354,46.162-277.862,91.752-155.473,73.324-304.087,109.883-465.344,109.906-111.895,0-229.871-17.925-360.606-53.912-119.028-32.627-237.485-48.883-354.638-48.883-158.72,0-314.81,29.723-466.419,89.054v4.71c151.7-59.651,307.745-89.374,466.419-89.374,116.6,0,234.764,16.187,353.449,48.722,131.009,36.079,249.374,54.05,361.726,54.05,161.9,0,311.22-36.788,467.2-110.317,95.89-45.316,189.425-75.244,276.01-91.249Z" transform="translate(7.316 -363.666)" fill="rgba(145,0,59,0.05)"/>
      <path id="Path_3" data-name="Path 3" d="M1924.946,402.62c-87.842,15.41-182.909,45.247-279.9,91.455-154.536,73.438-301.8,110.317-461.64,110.317-112.626,0-231.4-18.862-363.532-57.159A1286.568,1286.568,0,0,0,463.2,496.041c-157.485,0-312.546,29.585-463.264,88.413v4.573c150.74-59.034,305.779-88.734,463.263-88.734a1283.764,1283.764,0,0,1,355.576,51.054c132.289,38.32,251.5,57.274,364.492,57.274,160.389,0,308.454-37.062,463.4-110.729,96.508-46.025,190.889-75.7,278.136-91.066Z" transform="translate(7.239 -357.967)" fill="rgba(145,0,59,0.05)"/>
      <path id="Path_4" data-name="Path 4" d="M1924.869,407.05c-88.482,14.747-184.258,44.31-281.932,91.455C1489.407,572.057,1343.286,609.233,1185,609.233c-113.358,0-232.935-19.823-366.253-60.337A1241.5,1241.5,0,0,0,460.04,495.372C303.812,495.281,149.757,524.866,0,582.986v4.253c149.78-58.417,303.812-88.071,460.04-88.071a1237.909,1237.909,0,0,1,357.679,53.364c133.569,40.583,253.489,60.5,367.282,60.5,158.88,0,305.687-37.359,459.56-111.117,97.148-46.779,192.352-76.182,280.263-90.906Z" transform="translate(7.316 -352.269)" fill="rgba(145,0,59,0.05)"/>
      <path id="Path_5" data-name="Path 5" d="M1924.869,411.48c-89.168,14.107-185.7,43.441-283.967,91.157-152.478,73.689-297.433,111.232-454.278,111.232-114.09,0-234.444-20.806-369.065-63.584A1201.462,1201.462,0,0,0,456.77,494.452C301.8,494.384,148.8,523.946,0,581.54v4.047c148.82-57.8,301.8-87.431,456.816-87.431a1197.1,1197.1,0,0,1,359.783,55.7c134.9,42.846,255.57,63.721,370.071,63.721,157.393,0,302.921-37.634,455.833-111.529,97.742-47.511,193.793-76.662,282.366-90.746Z" transform="translate(7.316 -346.57)" fill="rgba(145,0,59,0.05)"/>
      <path id="Path_6" data-name="Path 6" d="M1924.817,415.91c-89.74,13.467-187.139,42.481-286.024,90.974-151.495,73.8-295.17,111.575-450.414,111.575-114.821,0-235.884-22.063-371.9-66.808a1155.621,1155.621,0,0,0-362.846-58.142C299.9,493.509,147.876,523.026.04,580.025v3.818C147.9,526.684,299.9,497.076,453.632,497.076a1152.65,1152.65,0,0,1,361.909,58.005c136.244,44.836,257.628,66.945,372.838,66.945,155.885,0,300.177-37.931,452.038-111.918,98.314-48.265,195.256-77.142,284.492-90.586Z" transform="translate(7.368 -340.871)" fill="rgba(145,0,59,0.05)"/>
      <path id="Path_7" data-name="Path 7" d="M1924.869,420.33c-90.38,12.826-188.6,41.589-288.082,90.792-150.489,73.941-292.952,112.032-446.8,112.032-115.53-.091-237.371-22.955-374.69-70.054a1121.712,1121.712,0,0,0-364.881-60.36c-152.478,0-303.492,29.494-450.414,85.9v3.59C146.9,525.663,297.891,496.1,450.414,496.1a1118.792,1118.792,0,0,1,364.013,60.337c137.548,47.053,259.685,70.168,375.627,70.168,154.375,0,297.411-38.228,448.128-112.329,98.977-49,196.627-77.6,286.619-90.4Z" transform="translate(7.316 -335.186)" fill="rgba(145,0,59,0.03)"/>
      <path id="Path_8" data-name="Path 8" d="M1924.869,424.76c-91.02,12.186-190.043,40.652-290.094,90.609-149.505,74.055-290.711,112.421-443.1,112.421-116.285,0-238.9-24.03-377.525-73.164a1090.6,1090.6,0,0,0-367.007-62.784c-151.22,0-301.229,29.448-447.145,85.236v3.407C145.939,524.514,295.924,495,447.145,495a1088.31,1088.31,0,0,1,366.116,62.646c138.851,49.317,261.766,73.392,378.416,73.392,152.889,0,294.644-38.5,444.469-112.718,99.594-49.751,198.159-78.079,288.722-90.243Z" transform="translate(7.316 -329.487)" fill="rgba(145,0,59,0.03)"/>
      <path id="Path_9" data-name="Path 9" d="M1924.869,429.19c-91.638,11.546-191.483,39.737-292.129,90.4-148.614,74.193-288.494,112.855-439.394,112.855-117.016,0-240.411-25.013-380.36-76.479a1062.522,1062.522,0,0,0-369.065-65.116C293.958,490.853,144.956,520.21,0,575.472v3.178C144.978,523.3,293.958,493.8,443.921,493.8a1060.666,1060.666,0,0,1,368.242,64.979c140.131,51.558,263.824,76.616,381.183,76.616,151.38,0,291.877-38.868,440.674-113.129,100.212-50.483,199.623-78.56,290.849-90.06Z" transform="translate(7.316 -323.788)" fill="rgba(145,0,59,0.03)"/>
      <path id="Path_10" data-name="Path 10" d="M1924.869,433.62c-92.278,10.883-192.947,38.868-294.164,90.22-147.494,74.307-286.253,113.244-435.667,113.267-117.771,0-241.943-25.973-383.2-79.7A1036.839,1036.839,0,0,0,440.7,489.956c-148.728,0-296.656,29.4-440.7,84v2.949c144.041-54.736,291.969-84.184,440.7-84.184a1034.575,1034.575,0,0,1,370.391,67.31c141.435,53.8,265.881,79.817,384,79.817,149.848,0,289.088-39.1,436.856-113.541,100.829-51.192,201.2-79.017,292.975-89.877Z" transform="translate(7.316 -318.09)" fill="rgba(145,0,59,0.03)"/>
      <path id="Path_11" data-name="Path 11" d="M1924.869,438.05a857.024,857.024,0,0,0-296.2,90.014c-146.488,74.49-284.036,113.678-431.963,113.678-118.5,0-243.475-26.911-386.007-82.926-122.572-48.151-247.956-69.734-373.226-69.734C290,489.082,143.035,518.439,0,572.42v2.7C143.058,521,290,491.574,437.473,491.574c125,0,250.106,21.56,372.449,69.643,142.715,56.085,267.962,83.041,386.784,83.041,148.362,0,286.344-39.371,433.061-113.93a854.418,854.418,0,0,1,295.1-89.717Z" transform="translate(7.316 -312.391)" fill="rgba(145,0,59,0.03)"/>
      <path id="Path_12" data-name="Path 12" d="M1924.869,442.48a837.2,837.2,0,0,0-298.234,89.831C1481.154,606.87,1344.841,646.4,1198.376,646.4c-119.211,0-244.961-27.848-388.842-86.127C686.55,510.431,560.32,488.207,434.25,488.207c-146.167-.023-292.175,29.311-434.25,82.7v2.515c142.1-53.5,288.082-82.881,434.249-82.881A994.962,994.962,0,0,1,808.825,562.56c143.881,58.645,270.02,86.264,389.551,86.264,146.853,0,283.509-39.668,429.288-114.318a835.28,835.28,0,0,1,297.228-89.557Z" transform="translate(7.316 -306.693)" fill="rgba(145,0,59,0.02)"/>
      <path id="Path_13" data-name="Path 13" d="M1924.8,446.91a819.271,819.271,0,0,0-300.291,89.625C1480.06,611.208,1344.959,651.06,1199.981,651.06c-119.966,0-246.653-28.534-391.654-89.374-123.464-51.283-250.289-74.4-377.25-74.4C286.1,487.287,141.165,516.6.05,569.391v2.286c141.137-52.884,286.07-82.309,431.026-82.309,126.848,0,253.4,23.069,376.679,74.284,145.161,60.909,272.077,89.488,392.34,89.488,145.344,0,280.812-39.943,425.493-114.73a816.438,816.438,0,0,1,299.331-89.4Z" transform="translate(7.381 -300.994)" fill="rgba(145,0,59,0.02)"/>
      <path id="Path_14" data-name="Path 14" d="M1924.869,451.34a801.441,801.441,0,0,0-302.326,89.443c-143.47,74.787-277.314,114.936-420.829,114.936-120.7,0-248.162-29.494-394.467-92.6-123.9-52.975-251.5-76.708-379.537-76.708-143.63,0-287.556,29.266-427.711,81.44v2.081c140.177-52.266,284.1-81.577,427.8-81.577,127.785,0,255.09,23.687,378.782,76.593,146.465,63.149,274.158,92.712,395.13,92.712,143.858,0,278.045-40.24,421.7-115.141a799.727,799.727,0,0,1,301.457-89.168Z" transform="translate(7.316 -295.295)" fill="rgba(145,0,59,0.02)"/>
      <path id="Path_15" data-name="Path 15" d="M1924.869,455.77a785.847,785.847,0,0,0-304.361,89.168c-142.464,74.924-275.1,115.37-417.125,115.37-121.429,0-249.694-30.477-397.3-95.822-124.287-54.69-252.6-79.04-381.5-79.04C282.115,485.447,139.194,514.69,0,566.27v2.058c139.217-51.672,282.138-80.96,424.578-80.96,128.7,0,256.782,24.327,380.909,78.925,147.745,65.413,276.216,96.027,397.828,96.027,142.349,0,275.278-40.537,417.9-115.53A783.953,783.953,0,0,1,1924.8,457.736Z" transform="translate(7.316 -289.597)" fill="rgba(145,0,59,0.02)"/>
      <path id="Path_16" data-name="Path 16" d="M1924.869,460.2A770.848,770.848,0,0,0,1618.5,549.254c-141.5,75.107-272.878,115.782-413.444,115.782-122.161,0-251.2-31.437-400.114-99.045-124.721-56.382-253.787-81.372-383.584-81.372-141.229,0-283.121,29.22-421.354,80.3v1.646c138.257-51.055,280.148-80.3,421.354-80.3,129.614,0,258.5,24.944,383.012,81.235,149.025,67.676,278.3,99.16,400.686,99.16,140.84,0,272.535-40.812,414.129-115.942a768.857,768.857,0,0,1,305.687-88.871Z" transform="translate(7.316 -283.898)" fill="rgba(145,0,59,0.02)"/>
      <path id="Path_17" data-name="Path 17" d="M1924.869,464.63a756.785,756.785,0,0,0-308.408,88.848c-140.452,75.176-270.638,116.216-409.694,116.216-122.915,0-252.758-32.4-402.949-102.269-125.156-58.074-254.976-83.658-385.687-83.658-139.971,0-280.949,29.151-418.131,79.52v1.44C137.3,514.29,278.182,485.07,418.131,485.07c130.551,0,260.188,25.584,385.116,83.567,150.329,69.94,280.354,102.383,403.5,102.383,139.331,0,269.791-41.155,410.311-116.33a755.03,755.03,0,0,1,307.814-88.711Z" transform="translate(7.316 -278.2)" fill="rgba(145,0,59,0.02)"/>
      <path id="Path_18" data-name="Path 18" d="M1924.869,469.06A743.594,743.594,0,0,0,1614.4,557.725c-139.469,75.29-268.4,116.6-405.99,116.6-123.647,0-254.29-33.358-405.784-105.493-125.521-59.766-256.073-85.99-387.722-85.99-138.714,0-278.594,29.174-414.907,78.925v1.212c136.336-49.82,276.216-78.994,414.907-78.994,131.466,0,261.88,26.2,387.242,85.9,151.609,72.181,282.412,105.584,406.264,105.584,137.822,0,266.979-41.406,406.516-116.742a742.728,742.728,0,0,1,309.94-88.528Z" transform="translate(7.316 -272.501)" fill="rgba(145,0,59,0.02)"/>
      <path id="Path_19" data-name="Path 19" d="M1921.669,402.505V393.2c-86.882,16.713-180.623,47.191-276.787,92.186-156.3,73.164-305.733,109.265-468.11,109.265-110.912,0-227.9-16.9-357.2-50.6Q641.4,497.6,466.511,497.435a1268.6,1268.6,0,0,0-308.659,37.885A1309.731,1309.731,0,0,0-3.2,586.947v78.925a1416,1416,0,0,1,136.656-42.595c92.369-23.6,185.607-36.582,278.251-36.582,130.94,0,260.646,26.087,385.5,85.487,151.975,72.364,283.51,106,408,106h0a712.561,712.561,0,0,0,203.738-30.294c67.288-19.869,134.713-49.157,204.652-86.882a738.8,738.8,0,0,1,308.042-88.025v-9.146m0-151.357v-9.306m0,19.137V413m0,19.137v-9.443m0,19.137v-9.26m0,19.137v-9.26m0,19.206v-9.26m0,19.251v-9.26m0,19.251v-9.145m0,19.205v-9.145m0,19.228v-9.146m0,19.274v-9.145m0,19.32v-9.146m0,19.32v-9.146m0,19.343v-9.146m0,19.366v-9.145m0,19.411v-9.146" transform="translate(3.2 -370.085)" fill="url(#linear-gradient)"/>
      <path id="Path_20" data-name="Path 20" d="M1924.583,750.739c-263.549,28.694-526.5-33.724-782.28-181.309-294.552-169.969-532.86-217.8-804.161-166.059C215.73,426.715,100.36,428.819-.24,413.363V800.651c95.479-4.276,200.217-25.424,307.882-65.436C566.55,639,809.477,646.5,1128.219,765.075c274.936,102.246,542.829,120.446,796.41,49.957Z" transform="translate(7.008 -382.451)" fill="url(#linear-gradient-2)"/>
      <g id="Group_1" data-name="Group 1" transform="translate(6.653)">
        <path id="Path_21" data-name="Path 21" d="M1799.567,757.071c-221.343,0-441.543-63.835-656.69-187.962C922.609,441.987,733.618,383.09,538.888,383.09a1066.345,1066.345,0,0,0-200.926,19.823A1090.462,1090.462,0,0,1,134.27,422.781,887.4,887.4,0,0,1-.26,412.858v2.286a890.867,890.867,0,0,0,134.53,9.9,1092.612,1092.612,0,0,0,204.1-19.914,1064.056,1064.056,0,0,1,200.514-19.777c194.341,0,382.829,58.714,602.892,185.7,215.421,124.31,436.01,188.282,657.788,188.282a1152.307,1152.307,0,0,0,125.042-6.859v-2.286A1158.216,1158.216,0,0,1,1799.567,757.071Z" transform="translate(0.329 -383.09)" fill="#fff"/>
        <path id="Path_22" data-name="Path 22" d="M1142.369,570.212C923.632,445.125,735.9,387.12,542.769,387.12c-67.608,0-135.627,7.385-205.773,21.309a1077.431,1077.431,0,0,1-203.029,20.9A885.727,885.727,0,0,1-.22,420.181v2.286a889.053,889.053,0,0,0,134.187,9.145,1077.966,1077.966,0,0,0,203.487-20.92,1051.26,1051.26,0,0,1,205.43-21.263c192.672,0,379.971,57.845,598.5,182.8,213.8,122.275,432.512,185.2,652.209,185.2a1085.543,1085.543,0,0,0,131.078-7.979v-2.286a1085.551,1085.551,0,0,1-131.077,7.979C1574.195,755.111,1355.892,692.327,1142.369,570.212Z" transform="translate(0.38 -377.906)" fill="#fff" opacity="0.97"/>
        <path id="Path_23" data-name="Path 23" d="M1141.963,571.391C924.758,448.339,738.236,391.18,546.753,391.18c-69.368,0-138.92,8.048-210.78,22.864a1064.557,1064.557,0,0,1-202.412,21.9A886.874,886.874,0,0,1-.26,427.35v2.286a890.44,890.44,0,0,0,133.844,8.345,1067.053,1067.053,0,0,0,202.824-21.949c71.723-14.747,141.137-22.864,210.345-22.864,191.026,0,377.09,56.976,594.135,179.914,212.152,120.24,428.968,182.086,646.63,182.086a1039.554,1039.554,0,0,0,137.182-9.146v-2.286a1039.627,1039.627,0,0,1-137.182,9.145C1570.268,753.089,1353.863,691.38,1141.963,571.391Z" transform="translate(0.329 -372.683)" fill="#fff" opacity="0.95"/>
        <path id="Path_24" data-name="Path 24" d="M1141.483,572.478C925.787,451.437,740.5,395.17,550.686,395.17c-71.106,0-142.212,8.665-215.7,24.3a1054.016,1054.016,0,0,1-201.772,22.864A888.129,888.129,0,0,1-.26,434.793v2.286a888.553,888.553,0,0,0,133.478,7.568,1056.559,1056.559,0,0,0,202.206-22.864c73.369-15.616,144.315-24.258,215.261-24.258,189.38,0,374.232,56.107,589.745,177.033,210.506,118.182,425.447,178.977,641.051,178.977a1003.939,1003.939,0,0,0,143.03-10.252l.1-2.3a1004.272,1004.272,0,0,1-143.127,10.266C1566.289,751.18,1351.737,690.523,1141.483,572.478Z" transform="translate(0.329 -367.551)" fill="#fff" opacity="0.92"/>
        <path id="Path_25" data-name="Path 25" d="M1141.025,573.617C926.839,454.589,742.786,399.19,554.618,399.19c-72.866,0-145.5,9.306-220.634,25.813a1043.3,1043.3,0,0,1-201.2,23.915A886.283,886.283,0,0,1-.26,442.2v2.286a889.861,889.861,0,0,0,133.135,6.859,1045.8,1045.8,0,0,0,201.566-23.961c75.016-16.485,147.47-25.744,220.177-25.744,187.734,0,371.352,55.216,585.31,174.13,208.882,116.17,421.926,175.89,635.473,175.89a979.087,979.087,0,0,0,149.14-11.428l.023-2.29A982.093,982.093,0,0,1,1775.4,749.37C1562.311,749.232,1349.634,689.627,1141.025,573.617Z" transform="translate(0.329 -362.379)" fill="#fff" opacity="0.9"/>
        <path id="Path_26" data-name="Path 26" d="M1140.568,574.707C927.936,457.714,745.027,403.23,558.551,403.23c-74.627,0-148.8,9.923-225.55,27.3a1036.438,1036.438,0,0,1-200.491,24.921A890.772,890.772,0,0,1-.26,449.415V451.7a894.3,894.3,0,0,0,132.792,5.876,1039,1039,0,0,0,200.926-24.922C410.1,415.3,484.107,405.4,558.551,405.4c186.065,0,368.471,54.347,580.989,171.249,207.213,114.135,418.4,172.8,629.871,172.8a964.808,964.808,0,0,0,155.3-12.568l-.1-2.27a964.527,964.527,0,0,1-155.2,12.552C1558.333,747.237,1347.553,688.706,1140.568,574.707Z" transform="translate(0.329 -357.182)" fill="#fff" opacity="0.87"/>
        <path id="Path_27" data-name="Path 27" d="M1140.111,575.87c-211.169-114.981-392.775-168.62-577.6-168.62-76.41,0-152.089,10.54-230.489,28.808a1029.818,1029.818,0,0,1-199.874,25.928A888.96,888.96,0,0,1-.26,456.727v2.286a889.486,889.486,0,0,0,132.426,5.236,1030.826,1030.826,0,0,0,200.331-26c78.262-18.291,153.781-28.74,230.009-28.74,184.4,0,365.59,53.478,576.576,168.345,205.59,112.032,414.861,169.694,624.315,169.694a954.745,954.745,0,0,0,161.144-13.707l.068-2.3A952.608,952.608,0,0,1,1763.4,745.266C1554.355,745.289,1345.449,687.9,1140.111,575.87Z" transform="translate(0.329 -352.011)" fill="#fff" opacity="0.85"/>
        <path id="Path_28" data-name="Path 28" d="M1139.692,576.986C930.032,464.016,749.661,411.27,566.477,411.27c-78.171,0-155.473,11.135-235.5,30.294A1024.918,1024.918,0,0,1,131.748,468.52,890.249,890.249,0,0,1-.29,463.948v2.286a894.174,894.174,0,0,0,132.083,4.436,1025.8,1025.8,0,0,0,199.691-27c79.886-19.137,156.936-30.226,234.924-30.226,182.749,0,362.709,52.586,572.186,165.441,203.967,110.066,411.363,166.607,618.736,166.607a947.265,947.265,0,0,0,167.317-14.747v-2.286A945.116,945.116,0,0,1,1757.4,743.3C1550.529,743.319,1343.385,686.891,1139.692,576.986Z" transform="translate(0.29 -346.84)" fill="#fff" opacity="0.82"/>
        <path id="Path_29" data-name="Path 29" d="M1139.2,578.1C931.137,467.168,751.886,415.29,570.371,415.29c-79.908,0-158.7,11.729-240.343,31.826a1021.553,1021.553,0,0,1-198.594,27.939A891.866,891.866,0,0,1-.26,471.374v2.287a895.424,895.424,0,0,0,131.718,3.681,1022.86,1022.86,0,0,0,199.074-28.031c81.509-20.051,160.046-31.735,239.84-31.735,181.1,0,359.851,51.718,567.8,162.561,202.321,108.031,407.842,163.521,613.158,163.521a943.058,943.058,0,0,0,173.284-16v-2.286a941.089,941.089,0,0,1-173.283,16C1546.4,741.371,1341.242,686,1139.2,578.1Z" transform="translate(0.329 -341.669)" fill="#fff" opacity="0.79"/>
        <path id="Path_30" data-name="Path 30" d="M1138.739,579.228C932.1,470.306,754.172,419.32,574.3,419.32c-81.669,0-161.989,12.3-245.281,33.312a1016.313,1016.313,0,0,1-197.954,28.945A890.056,890.056,0,0,1-.26,478.674v2.286a893.975,893.975,0,0,0,131.375,2.881,1017.828,1017.828,0,0,0,198.457-29.083c83.155-20.966,163.269-33.221,244.641-33.221,179.457,0,356.97,50.849,563.429,159.657,200.674,106,404.3,160.434,607.579,160.434a943.384,943.384,0,0,0,179.3-17.125v-2.286a941.54,941.54,0,0,1-179.3,17.148C1542.42,739.411,1339.162,685.087,1138.739,579.228Z" transform="translate(0.329 -336.485)" fill="#fff" opacity="0.77"/>
        <path id="Path_31" data-name="Path 31" d="M1138.3,580.348C933.188,473.437,756.474,423.32,578.275,423.32c-83.429,0-165.281,12.872-250.2,34.821a1015.361,1015.361,0,0,1-197.382,30A891.718,891.718,0,0,1-.29,486.012V488.3a892.445,892.445,0,0,0,131.032,2.1,1016.25,1016.25,0,0,0,197.794-30.02c84.778-21.9,166.424-34.753,249.671-34.753,177.788,0,354.112,49.98,559.039,156.776,199.051,103.961,400.777,157.325,602,157.325a945.6,945.6,0,0,0,185.333-18.291v-2.286a942.129,942.129,0,0,1-185.333,18.291C1538.48,737.466,1337.1,684.217,1138.3,580.348Z" transform="translate(0.29 -331.339)" fill="#fff" opacity="0.74"/>
        <path id="Path_32" data-name="Path 32" d="M1137.8,581.494C934.2,476.6,758.722,427.37,582.215,427.37c-85.19,0-168.574,13.421-255.113,36.307a1012.093,1012.093,0,0,1-196.627,30.957A889.883,889.883,0,0,1-.26,493.286v2.286a896.934,896.934,0,0,0,130.666,1.349,1015.574,1015.574,0,0,0,197.2-31.049c86.379-22.864,169.58-36.239,254.564-36.239,176.05,0,351.232,49.111,554.65,153.873,197.4,101.926,397.256,154.238,596.421,154.238a948.011,948.011,0,0,0,191.369-19.411v-2.286a946.4,946.4,0,0,1-191.369,19.434C1534.486,735.481,1334.955,683.283,1137.8,581.494Z" transform="translate(0.329 -326.13)" fill="#fff" opacity="0.72"/>
        <path id="Path_33" data-name="Path 33" d="M1137.37,582.61C935.278,479.724,761.034,431.39,586.127,431.39c-86.882,0-171.889,13.993-260.051,37.817a1010.758,1010.758,0,0,1-196.033,32.009A894.861,894.861,0,0,1-.28,500.644v2.286a895.605,895.605,0,0,0,130.323.549A1012.619,1012.619,0,0,0,326.671,471.47c88-23.8,172.735-37.725,259.48-37.725,174.5,0,348.374,48.219,550.283,150.9C1332.191,684.536,1530.145,735.8,1727.275,735.8a951.908,951.908,0,0,0,197.382-20.577v-2.286a950.245,950.245,0,0,1-197.382,20.577C1530.511,733.533,1332.877,682.387,1137.37,582.61Z" transform="translate(0.303 -320.958)" fill="#fff" opacity="0.69"/>
        <path id="Path_34" data-name="Path 34" d="M1136.887,583.737C936.3,482.908,763.272,435.42,590.057,435.42c-88.734,0-175.2,14.518-264.99,39.3a1009.818,1009.818,0,0,1-195.416,32.9A896.246,896.246,0,0,1-.26,507.829v2.286a894.14,894.14,0,0,0,129.98-.229,1011.437,1011.437,0,0,0,195.919-33.061c89.625-24.761,175.913-39.234,264.418-39.234,172.826,0,345.47,47.351,545.87,148.088,194.113,97.856,390.214,148.065,585.31,148.065a958.631,958.631,0,0,0,203.487-21.7v-2.286a957.053,957.053,0,0,1-203.487,21.72C1526.507,731.55,1330.771,681.387,1136.887,583.737Z" transform="translate(0.329 -315.774)" fill="#fff" opacity="0.66"/>
        <path id="Path_35" data-name="Path 35" d="M1136.365,584.863C937.292,486.046,765.494,439.45,593.925,439.45c-90.472,0-178.52,15.021-269.791,40.789a1008.7,1008.7,0,0,1-194.776,34A891.657,891.657,0,0,1-.21,515.22v2.286A898.941,898.941,0,0,0,129.4,516.5a1011.778,1011.778,0,0,0,195.3-34.09c91.249-25.722,179.068-40.72,269.334-40.72,171.157,0,342.589,46.482,541.48,145.207,192.489,95.8,386.693,144.956,579.685,144.956a966.359,966.359,0,0,0,209.454-22.864V706.7A963.4,963.4,0,0,1,1715.2,729.567C1522.464,729.59,1328.649,680.547,1136.365,584.863Z" transform="translate(0.393 -310.59)" fill="#fff" opacity="0.64"/>
        <path id="Path_36" data-name="Path 36" d="M1135.973,586C938.408,489.2,767.868,443.47,597.922,443.47c-92.232,0-181.835,15.547-274.844,42.3a1009.015,1009.015,0,0,1-194.135,35A896.594,896.594,0,0,1-.26,522.555v2.286a900.832,900.832,0,0,0,129.271-1.784,1012.4,1012.4,0,0,0,194.661-35.1c92.849-26.7,182.223-42.206,274.364-42.206,169.511,0,339.731,45.59,537.09,142.3,190.866,93.741,383.172,141.755,574.13,141.755a973.5,973.5,0,0,0,215.467-23.984v-2.286a971.866,971.866,0,0,1-215.467,24.03C1518.482,727.642,1326.564,679.652,1135.973,586Z" transform="translate(0.329 -305.419)" fill="#fff" opacity="0.61"/>
        <path id="Path_37" data-name="Path 37" d="M1135.515,587.105C939.459,492.336,770.108,447.5,601.854,447.5c-93.993,0-185.2,16-279.76,43.784a1011.7,1011.7,0,0,1-193.518,36.01A894.9,894.9,0,0,1-.26,529.855v2.286a899.156,899.156,0,0,0,128.905-2.584,1011.526,1011.526,0,0,0,194.067-36.124c94.473-27.688,185.4-43.715,279.165-43.715,167.865,0,336.85,44.721,532.723,139.468,189.2,91.752,379.537,138.759,568.528,138.759a981.19,981.19,0,0,0,221.5-25.15v-2.286a979.952,979.952,0,0,1-221.5,25.15C1514.572,725.659,1324.483,678.743,1135.515,587.105Z" transform="translate(0.329 -300.235)" fill="#fff" opacity="0.59"/>
        <path id="Path_38" data-name="Path 38" d="M1135.058,588.245C940.534,495.487,772.395,451.52,605.787,451.52c-95.753,0-188.465,16.553-284.675,45.316a1014.431,1014.431,0,0,1-192.878,36.993A893.6,893.6,0,0,1-.26,537.213V539.5a900.992,900.992,0,0,0,128.631-3.407A1016.091,1016.091,0,0,0,321.8,498.962c96.027-28.694,188.534-45.2,284.058-45.2,166.219,0,333.992,43.852,528.334,136.519C1321.671,680,1510.3,725.952,1697.138,725.952a991.18,991.18,0,0,0,227.54-26.27V697.4a990,990,0,0,1-227.539,26.316C1510.594,723.712,1322.38,677.847,1135.058,588.245Z" transform="translate(0.329 -295.064)" fill="#fff" opacity="0.56"/>
        <path id="Path_39" data-name="Path 39" d="M1134.526,589.371C941.534,498.625,774.607,455.55,609.668,455.55c-97.514,0-191.78,17.033-289.614,46.8a1016.434,1016.434,0,0,1-192.238,38.022A901.822,901.822,0,0,1-.22,544.49v2.286A899.7,899.7,0,0,0,128,542.66a1017.213,1017.213,0,0,0,192.695-38.068C418.345,474.87,512.383,457.9,609.668,457.9c164.618,0,331.112,42.961,523.944,133.615C1319.539,679.2,1506.29,724.129,1691,724.129a1001.651,1001.651,0,0,0,233.553-27.436v-2.286A999.134,999.134,0,0,1,1691,721.843C1506.564,721.8,1320.225,676.939,1134.526,589.371Z" transform="translate(0.38 -289.88)" fill="#fff" opacity="0.54"/>
        <path id="Path_40" data-name="Path 40" d="M1134.121,590.51c-191.483-88.8-357.176-130.94-520.446-130.94-99.274,0-195.118,17.514-294.552,48.311a1019.421,1019.421,0,0,1-191.6,39.028A900.54,900.54,0,0,1-.26,551.8v2.286a901.376,901.376,0,0,0,127.854-4.916A1017.854,1017.854,0,0,0,319.763,510.03c99.251-30.729,194.867-48.2,293.912-48.2,162.881,0,328.231,42.115,519.554,130.734,184.281,85.647,369.065,129.477,551.791,129.477a1012.626,1012.626,0,0,0,239.588-28.534v-2.286a1010.318,1010.318,0,0,1-239.588,28.6C1502.637,719.781,1318.173,676.043,1134.121,590.51Z" transform="translate(0.329 -284.709)" fill="#fff" opacity="0.51"/>
        <path id="Path_41" data-name="Path 41" d="M1133.663,591.627C943.689,504.928,779.277,463.59,617.607,463.59c-101.034,0-198.457,17.971-299.514,49.8a1022.009,1022.009,0,0,1-190.957,40.034A902.26,902.26,0,0,1-.26,559.114V561.4a903.415,903.415,0,0,0,127.511-5.67A1024.14,1024.14,0,0,0,318.78,515.582C419.631,483.8,516.8,465.876,617.607,465.876c161.234,0,325.35,41.155,515.164,127.831,182.658,83.612,365.544,126.39,546.213,126.39a1022.91,1022.91,0,0,0,245.624-29.723v-2.286a1020.7,1020.7,0,0,1-245.624,29.722C1498.659,717.834,1316.092,675.124,1133.663,591.627Z" transform="translate(0.329 -279.537)" fill="#fff" opacity="0.48"/>
        <path id="Path_42" data-name="Path 42" d="M1133.206,592.753C944.741,508.157,781.494,467.62,621.54,467.62c-102.886,0-201.772,18.428-304.407,51.306a1026.73,1026.73,0,0,1-190.317,41.018A901.186,901.186,0,0,1-.26,566.437v2.286a905.7,905.7,0,0,0,127.168-6.493A1027.3,1027.3,0,0,0,317.8,521.075C420.248,488.243,519,469.883,621.54,469.883c159.588,0,322.492,40.332,510.774,124.927,181.012,81.578,362.023,123.3,540.657,123.3a1033.591,1033.591,0,0,0,251.638-30.843v-2.286a1032.381,1032.381,0,0,1-251.638,30.889C1494.681,715.851,1313.989,674.262,1133.206,592.753Z" transform="translate(0.329 -274.353)" fill="#fff" opacity="0.46"/>
        <path id="Path_43" data-name="Path 43" d="M1132.749,593.879C945.793,511.318,783.781,471.65,625.473,471.65c-104.556,0-205.11,18.862-309.322,52.792a1030.229,1030.229,0,0,1-189.768,42.046A899.527,899.527,0,0,1-.26,573.736v2.286a904.012,904.012,0,0,0,126.8-7.248,1034.291,1034.291,0,0,0,190.294-42.16c104.007-33.884,204.332-52.7,308.659-52.7,157.919,0,319.611,39.486,506.384,122.046,179.388,79.543,358.5,120.217,535.01,120.217a1045.654,1045.654,0,0,0,257.673-32.009v-2.286A1043.559,1043.559,0,0,1,1666.89,713.89C1490.7,713.89,1311.885,673.307,1132.749,593.879Z" transform="translate(0.329 -269.169)" fill="#fff" opacity="0.43"/>
        <path id="Path_44" data-name="Path 44" d="M1132.292,595C946.89,514.378,786.044,475.67,629.405,475.67c-106.316,0-208.448,19.3-314.261,54.3a1035.029,1035.029,0,0,1-189.06,43.052A901.3,901.3,0,0,1-.26,581.049v2.286a906.284,906.284,0,0,0,126.459-8,1040.066,1040.066,0,0,0,189.769-43.19c105.607-34.959,207.488-54.187,313.552-54.187,156.273,0,316.73,38.594,502.017,119.143,177.6,77.485,354.935,117.108,529.362,117.108A1058.14,1058.14,0,0,0,1924.609,681.1v-2.286A1055.049,1055.049,0,0,1,1660.9,711.92C1486.724,711.92,1309.782,672.412,1132.292,595Z" transform="translate(0.329 -263.998)" fill="#fff" opacity="0.41"/>
        <path id="Path_45" data-name="Path 45" d="M1131.834,596.122C947.9,517.516,788.331,479.7,633.406,479.7c-108.077,0-211.809,19.708-319.177,55.787A1040.088,1040.088,0,0,1,125.81,579.569,903.277,903.277,0,0,1-.26,588.348v2.286a907.843,907.843,0,0,0,126.063-8.8A1044.861,1044.861,0,0,0,314.87,537.545c107.185-36.033,210.666-55.673,318.468-55.673,154.627,0,313.872,37.7,497.628,116.239,176.05,75.45,351.437,114.021,523.921,114.021a1069.812,1069.812,0,0,0,269.791-34.3V675.55a1067.734,1067.734,0,0,1-269.791,34.3C1482.746,709.96,1307.7,671.5,1131.834,596.122Z" transform="translate(0.329 -258.814)" fill="#fff" opacity="0.38"/>
        <path id="Path_46" data-name="Path 46" d="M1131.354,597.261C948.948,520.668,790.685,483.72,637.293,483.72c-109.746,0-215.17,20.12-324.115,57.3a1045.8,1045.8,0,0,1-187.8,45.087A908.72,908.72,0,0,1-.26,595.683v2.286a906.812,906.812,0,0,0,125.75-9.58,1050.321,1050.321,0,0,0,188.4-45.2c108.762-37.108,213.821-57.159,323.406-57.159,152.958,0,310.946,36.856,493.215,113.358,174.473,73.438,347.916,110.935,518.342,110.935a1081.8,1081.8,0,0,0,275.759-35.416V672.62a1079.731,1079.731,0,0,1-275.8,35.393C1478.767,708.012,1305.6,670.608,1131.354,597.261Z" transform="translate(0.329 -253.643)" fill="#fff" opacity="0.35"/>
        <path id="Path_47" data-name="Path 47" d="M1130.9,598.387C950,523.806,792.88,487.75,641.226,487.75c-111.6,0-218.531,20.577-329.054,58.782a1055.181,1055.181,0,0,1-187.139,46.093A907.7,907.7,0,0,1-.26,602.983v2.286a912.906,912.906,0,0,0,125.407-10.357A1058.084,1058.084,0,0,0,312.9,548.682c110.317-38.205,217-58.668,328.322-58.668,151.289,0,308.111,35.965,488.825,110.477,172.826,71.4,344.418,107.825,512.763,107.825a1095.152,1095.152,0,0,0,281.795-36.582v-2.286a1092.882,1092.882,0,0,1-281.795,36.582C1474.789,706.029,1303.563,669.676,1130.9,598.387Z" transform="translate(0.329 -248.459)" fill="#fff" opacity="0.33"/>
        <path id="Path_48" data-name="Path 48" d="M1130.44,599.5C951.051,526.957,795.167,491.77,645.09,491.77c-113.358,0-221.778,20.92-333.97,60.314A1062.657,1062.657,0,0,1,124.6,599.161,906.379,906.379,0,0,1-.26,610.3v2.286a911.211,911.211,0,0,0,125.041-11.135,1064.344,1064.344,0,0,0,187.162-47.236c111.872-39.326,220.131-60.154,333.215-60.154,149.643,0,305.23,35.1,484.458,107.574C1300.8,671,1470.491,706.368,1636.8,706.368a1108.361,1108.361,0,0,0,287.808-37.7V666.38A1105.4,1105.4,0,0,1,1636.8,704.174C1470.811,704.082,1301.391,668.78,1130.44,599.5Z" transform="translate(0.329 -243.288)" fill="#fff" opacity="0.3"/>
        <path id="Path_49" data-name="Path 49" d="M1129.982,600.63C952.1,530.1,797.43,495.8,649.091,495.8c-115.119,0-225.253,21.263-338.885,61.732a1069.657,1069.657,0,0,1-185.881,48.014A909.05,909.05,0,0,1-.26,617.618V619.9a913.56,913.56,0,0,0,124.7-11.935A1070.821,1070.821,0,0,0,310.96,559.727c113.427-40.446,223.287-61.732,338.131-61.732,148,0,302.372,34.3,480.137,104.693,169.465,67.333,337.285,101.629,501.537,101.629a1121.051,1121.051,0,0,0,293.844-38.869v-2.286a1119.084,1119.084,0,0,1-293.844,38.868C1466.833,702.03,1299.311,667.872,1129.982,600.63Z" transform="translate(0.329 -238.104)" fill="#fff" opacity="0.28"/>
        <path id="Path_50" data-name="Path 50" d="M1129.525,601.769c-176.37-68.591-329.808-101.949-476.5-101.949-116.879,0-228.637,21.652-343.824,63.309A1077.383,1077.383,0,0,1,124,612.218,907.035,907.035,0,0,1-.26,624.93v2.286A912.445,912.445,0,0,0,124.1,614.55a1080.732,1080.732,0,0,0,185.882-49.271c114.981-41.566,226.35-63.15,342.955-63.15,146.327,0,299.514,33.335,475.564,101.789,167.911,65.3,333.809,98.542,496.141,98.542a1134.034,1134.034,0,0,0,299.971-39.9v-2.286a1132,1132,0,0,1-299.88,40.08C1462.854,700.151,1297.207,666.976,1129.525,601.769Z" transform="translate(0.329 -232.932)" fill="#fff" opacity="0.25"/>
        <path id="Path_51" data-name="Path 51" d="M1129.068,602.9c-174.861-66.51-326.95-99.046-472.112-99.046-118.617,0-232.066,21.835-348.739,64.8a1095.975,1095.975,0,0,1-184.624,50.117A912.466,912.466,0,0,1-.26,632.229v2.286A914.573,914.573,0,0,0,123.8,621.049a1098.455,1098.455,0,0,0,185.2-50.3c116.468-42.892,229.62-64.658,347.962-64.658,144.681,0,296.61,32.466,471.312,98.885,166.265,63.264,330.288,95.456,490.448,95.456a1147.762,1147.762,0,0,0,305.893-41.155v-2.286a1145.961,1145.961,0,0,1-305.893,41.155C1458.876,698.191,1295.1,666.068,1129.068,602.9Z" transform="translate(0.329 -227.748)" fill="#fff" opacity="0.23"/>
        <path id="Path_52" data-name="Path 52" d="M1128.585,603.947c-173.352-64.476-324.344-96.027-467.7-96.027-120.4,0-235.5,22.338-353.7,66.3a1099.052,1099.052,0,0,1-183.961,51.123A915.361,915.361,0,0,1-.24,639.615V641.9a917.278,917.278,0,0,0,123.647-14.267,1097.975,1097.975,0,0,0,184.624-51.26c118.091-43.876,232.775-66.168,352.9-66.168,143.012,0,293.729,31.6,466.9,96.027C1292.449,667.463,1454.6,698.6,1612.7,698.6a1161.856,1161.856,0,0,0,311.929-42.275v-2.286a1159.187,1159.187,0,0,1-311.974,42.138C1454.872,696.179,1292.974,665.108,1128.585,603.947Z" transform="translate(0.354 -222.513)" fill="#fff" opacity="0.2"/>
      </g>
    </g>
  </g>
</svg>
